<svg xmlns="http://www.w3.org/2000/svg" viewBox="0 0 1000 560" fill="none">
  <title>n8n 4 個方案價格比較：Community 版免費自架、Starter 月費 20 歐元、Pro 月費 50 歐元、Enterprise 企業版聯絡報價</title>
  <rect width="1000" height="560" fill="#FAFAF9"/>

  <text x="500" y="46" text-anchor="middle" font-family="Inter, 'Noto Sans TC', sans-serif" font-size="22" font-weight="700" fill="#1C1917">n8n 4 個方案怎麼選？</text>
  <text x="500" y="72" text-anchor="middle" font-family="Inter, 'Noto Sans TC', sans-serif" font-size="13" fill="#78716C">Series B 後新定價：取消 active workflow 限制，純粹按執行次數計費</text>

  <!-- Card 1: Community (免費, 推薦) -->
  <g transform="translate(40, 110)">
    <rect x="0" y="0" width="220" height="400" rx="12" fill="white" stroke="#0D9488" stroke-width="3"/>

    <!-- 推薦 badge -->
    <g transform="translate(60, -14)">
      <rect x="0" y="0" width="100" height="28" rx="14" fill="#0D9488"/>
      <text x="50" y="19" text-anchor="middle" font-family="Inter, 'Noto Sans TC', sans-serif" font-size="12" font-weight="700" fill="white">最多人選</text>
    </g>

    <text x="110" y="58" text-anchor="middle" font-family="Inter, 'Noto Sans TC', sans-serif" font-size="14" font-weight="600" fill="#0D9488">Community</text>
    <text x="110" y="78" text-anchor="middle" font-family="Inter, 'Noto Sans TC', sans-serif" font-size="11" fill="#78716C">自架版</text>

    <text x="110" y="135" text-anchor="middle" font-family="Inter, sans-serif" font-size="40" font-weight="800" fill="#0D9488">免費</text>
    <text x="110" y="158" text-anchor="middle" font-family="Inter, 'Noto Sans TC', sans-serif" font-size="11" fill="#78716C">只需一台 VPS</text>

    <line x1="30" y1="180" x2="190" y2="180" stroke="#E7E5E4" stroke-width="1"/>

    <g font-family="Inter, 'Noto Sans TC', sans-serif" font-size="12" fill="#1C1917">
      <g transform="translate(24, 210)">
        <circle cx="6" cy="6" r="6" fill="#0D9488"/>
        <path d="M3 6 L5 8 L9 4" stroke="white" stroke-width="1.8" fill="none"/>
        <text x="22" y="10">執行次數無限</text>
      </g>
      <g transform="translate(24, 244)">
        <circle cx="6" cy="6" r="6" fill="#0D9488"/>
        <path d="M3 6 L5 8 L9 4" stroke="white" stroke-width="1.8" fill="none"/>
        <text x="22" y="10">工作流數量無限</text>
      </g>
      <g transform="translate(24, 278)">
        <circle cx="6" cy="6" r="6" fill="#0D9488"/>
        <path d="M3 6 L5 8 L9 4" stroke="white" stroke-width="1.8" fill="none"/>
        <text x="22" y="10">資料完全自主</text>
      </g>
      <g transform="translate(24, 312)">
        <circle cx="6" cy="6" r="6" fill="#0D9488"/>
        <path d="M3 6 L5 8 L9 4" stroke="white" stroke-width="1.8" fill="none"/>
        <text x="22" y="10">所有節點可用</text>
      </g>
    </g>

    <rect x="20" y="340" width="180" height="46" rx="8" fill="#F0FDFA"/>
    <text x="110" y="356" text-anchor="middle" font-family="Inter, 'Noto Sans TC', sans-serif" font-size="10" fill="#78716C">適合</text>
    <text x="110" y="374" text-anchor="middle" font-family="Inter, 'Noto Sans TC', sans-serif" font-size="12" font-weight="600" fill="#0F766E">技術人、注重隱私</text>
  </g>

  <!-- Card 2: Starter -->
  <g transform="translate(280, 110)">
    <rect x="0" y="0" width="220" height="400" rx="12" fill="white" stroke="#F59E0B" stroke-width="2"/>

    <text x="110" y="58" text-anchor="middle" font-family="Inter, 'Noto Sans TC', sans-serif" font-size="14" font-weight="600" fill="#D97706">Starter</text>
    <text x="110" y="78" text-anchor="middle" font-family="Inter, 'Noto Sans TC', sans-serif" font-size="11" fill="#78716C">Cloud 入門</text>

    <g transform="translate(110, 128)">
      <text text-anchor="middle" font-family="Inter, sans-serif" font-size="34" font-weight="800" fill="#1C1917">NT$ 700</text>
    </g>
    <text x="110" y="158" text-anchor="middle" font-family="Inter, 'Noto Sans TC', sans-serif" font-size="11" fill="#78716C">/ 月 · 約 €20</text>

    <line x1="30" y1="180" x2="190" y2="180" stroke="#E7E5E4" stroke-width="1"/>

    <g font-family="Inter, 'Noto Sans TC', sans-serif" font-size="12" fill="#1C1917">
      <g transform="translate(24, 210)">
        <circle cx="6" cy="6" r="6" fill="#F59E0B"/>
        <path d="M3 6 L5 8 L9 4" stroke="white" stroke-width="1.8" fill="none"/>
        <text x="22" y="10">2,500 次執行/月</text>
      </g>
      <g transform="translate(24, 244)">
        <circle cx="6" cy="6" r="6" fill="#F59E0B"/>
        <path d="M3 6 L5 8 L9 4" stroke="white" stroke-width="1.8" fill="none"/>
        <text x="22" y="10">無限用戶</text>
      </g>
      <g transform="translate(24, 278)">
        <circle cx="6" cy="6" r="6" fill="#F59E0B"/>
        <path d="M3 6 L5 8 L9 4" stroke="white" stroke-width="1.8" fill="none"/>
        <text x="22" y="10">零維護</text>
      </g>
      <g transform="translate(24, 312)">
        <circle cx="6" cy="6" r="6" fill="#F59E0B"/>
        <path d="M3 6 L5 8 L9 4" stroke="white" stroke-width="1.8" fill="none"/>
        <text x="22" y="10">官方技術支援</text>
      </g>
    </g>

    <rect x="20" y="340" width="180" height="46" rx="8" fill="#FFFBEB"/>
    <text x="110" y="356" text-anchor="middle" font-family="Inter, 'Noto Sans TC', sans-serif" font-size="10" fill="#78716C">適合</text>
    <text x="110" y="374" text-anchor="middle" font-family="Inter, 'Noto Sans TC', sans-serif" font-size="12" font-weight="600" fill="#D97706">3-5 人小團隊</text>
  </g>

  <!-- Card 3: Pro -->
  <g transform="translate(520, 110)">
    <rect x="0" y="0" width="220" height="400" rx="12" fill="white" stroke="#78716C" stroke-width="2"/>

    <text x="110" y="58" text-anchor="middle" font-family="Inter, 'Noto Sans TC', sans-serif" font-size="14" font-weight="600" fill="#57534E">Pro</text>
    <text x="110" y="78" text-anchor="middle" font-family="Inter, 'Noto Sans TC', sans-serif" font-size="11" fill="#78716C">Cloud 進階</text>

    <g transform="translate(110, 128)">
      <text text-anchor="middle" font-family="Inter, sans-serif" font-size="32" font-weight="800" fill="#1C1917">NT$ 1,750</text>
    </g>
    <text x="110" y="158" text-anchor="middle" font-family="Inter, 'Noto Sans TC', sans-serif" font-size="11" fill="#78716C">/ 月起 · 約 €50</text>

    <line x1="30" y1="180" x2="190" y2="180" stroke="#E7E5E4" stroke-width="1"/>

    <g font-family="Inter, 'Noto Sans TC', sans-serif" font-size="12" fill="#1C1917">
      <g transform="translate(24, 210)">
        <circle cx="6" cy="6" r="6" fill="#78716C"/>
        <path d="M3 6 L5 8 L9 4" stroke="white" stroke-width="1.8" fill="none"/>
        <text x="22" y="10">執行次數可自訂</text>
      </g>
      <g transform="translate(24, 244)">
        <circle cx="6" cy="6" r="6" fill="#78716C"/>
        <path d="M3 6 L5 8 L9 4" stroke="white" stroke-width="1.8" fill="none"/>
        <text x="22" y="10">20 個工作流同時跑</text>
      </g>
      <g transform="translate(24, 278)">
        <circle cx="6" cy="6" r="6" fill="#78716C"/>
        <path d="M3 6 L5 8 L9 4" stroke="white" stroke-width="1.8" fill="none"/>
        <text x="22" y="10">Git 版本控制</text>
      </g>
      <g transform="translate(24, 312)">
        <circle cx="6" cy="6" r="6" fill="#78716C"/>
        <path d="M3 6 L5 8 L9 4" stroke="white" stroke-width="1.8" fill="none"/>
        <text x="22" y="10">進階權限管理</text>
      </g>
    </g>

    <rect x="20" y="340" width="180" height="46" rx="8" fill="#F5F5F4"/>
    <text x="110" y="356" text-anchor="middle" font-family="Inter, 'Noto Sans TC', sans-serif" font-size="10" fill="#78716C">適合</text>
    <text x="110" y="374" text-anchor="middle" font-family="Inter, 'Noto Sans TC', sans-serif" font-size="12" font-weight="600" fill="#57534E">正式營運團隊</text>
  </g>

  <!-- Card 4: Enterprise -->
  <g transform="translate(760, 110)">
    <rect x="0" y="0" width="220" height="400" rx="12" fill="white" stroke="#F43F5E" stroke-width="2"/>

    <text x="110" y="58" text-anchor="middle" font-family="Inter, 'Noto Sans TC', sans-serif" font-size="14" font-weight="600" fill="#E11D48">Enterprise</text>
    <text x="110" y="78" text-anchor="middle" font-family="Inter, 'Noto Sans TC', sans-serif" font-size="11" fill="#78716C">企業版</text>

    <text x="110" y="135" text-anchor="middle" font-family="Inter, sans-serif" font-size="28" font-weight="800" fill="#1C1917">聯絡報價</text>
    <text x="110" y="158" text-anchor="middle" font-family="Inter, 'Noto Sans TC', sans-serif" font-size="11" fill="#78716C">依需求客製</text>

    <line x1="30" y1="180" x2="190" y2="180" stroke="#E7E5E4" stroke-width="1"/>

    <g font-family="Inter, 'Noto Sans TC', sans-serif" font-size="12" fill="#1C1917">
      <g transform="translate(24, 210)">
        <circle cx="6" cy="6" r="6" fill="#F43F5E"/>
        <path d="M3 6 L5 8 L9 4" stroke="white" stroke-width="1.8" fill="none"/>
        <text x="22" y="10">SSO 單一登入</text>
      </g>
      <g transform="translate(24, 244)">
        <circle cx="6" cy="6" r="6" fill="#F43F5E"/>
        <path d="M3 6 L5 8 L9 4" stroke="white" stroke-width="1.8" fill="none"/>
        <text x="22" y="10">RBAC 權限控管</text>
      </g>
      <g transform="translate(24, 278)">
        <circle cx="6" cy="6" r="6" fill="#F43F5E"/>
        <path d="M3 6 L5 8 L9 4" stroke="white" stroke-width="1.8" fill="none"/>
        <text x="22" y="10">365 天資料保留</text>
      </g>
      <g transform="translate(24, 312)">
        <circle cx="6" cy="6" r="6" fill="#F43F5E"/>
        <path d="M3 6 L5 8 L9 4" stroke="white" stroke-width="1.8" fill="none"/>
        <text x="22" y="10">專屬客戶經理</text>
      </g>
    </g>

    <rect x="20" y="340" width="180" height="46" rx="8" fill="#FEF2F2"/>
    <text x="110" y="356" text-anchor="middle" font-family="Inter, 'Noto Sans TC', sans-serif" font-size="10" fill="#78716C">適合</text>
    <text x="110" y="374" text-anchor="middle" font-family="Inter, 'Noto Sans TC', sans-serif" font-size="12" font-weight="600" fill="#E11D48">大企業、合規需求</text>
  </g>

  <text x="500" y="535" text-anchor="middle" font-family="Inter, 'Noto Sans TC', sans-serif" font-size="11" fill="#78716C">💡 建議路徑：先用 Zeabur 部署 Community 版試用 → 流程穩定後視需求升級</text>
  <text x="20" y="553" font-family="Inter, sans-serif" font-size="10" fill="#A8A29E" opacity="0.7">* 台幣依 2026/4 匯率試算（€1 ≈ NT$ 35），實際以刷卡當日匯率為準</text>
  <text x="980" y="553" text-anchor="end" font-family="Inter, sans-serif" font-size="10" fill="#A8A29E" opacity="0.6">資料：n8n 官方定價 2026 · @elijah.shi.sensei</text>
</svg>
